# xmcd
#
# Track frame offsets:
# 150
# 32207
# 61840
# 92867
# 125621
# 161440
# 195573
# 220985
# 256080
# 283024
# 307405
#
# Disc length: 4416 seconds
#
# Revision: 0
# Processed by: cddbd v1.4PL0 Copyright (c) Steve Scherf et al.
# Submitted via: Audion 3.0.2 (http://www.panic.com/audion/)
#
DISCID=a2113e0b
DTITLE=James Patterson - 2nd Chance Disk 7
DYEAR=1900
DGENRE=
TTITLE0=Chapter 77
TTITLE1=Chapter 78
TTITLE2=Chapter 79
TTITLE3=Chapter 80
TTITLE4=Chapter 81
TTITLE5=Chapter 82
TTITLE6=Chapter 83
TTITLE7=Chapter 84
TTITLE8=Chapter 85
TTITLE9=Chapter 86
TTITLE10=Chapter 87
EXTD=
EXTT0=
EXTT1=
EXTT2=
EXTT3=
EXTT4=
EXTT5=
EXTT6=
EXTT7=
EXTT8=
EXTT9=
EXTT10=
PLAYORDER=
